<svg id="Instagram" xmlns="http://www.w3.org/2000/svg" width="148" height="148" viewBox="0 0 148 148">
  <path id="Path_3" data-name="Path 3" d="M74,13.156c19.733,0,22.2,0,29.6.822a38.136,38.136,0,0,1,13.978,2.467,28.876,28.876,0,0,1,13.978,13.978A38.136,38.136,0,0,1,134.022,44.4c0,7.4.822,9.867.822,29.6s0,22.2-.822,29.6a38.136,38.136,0,0,1-2.467,13.978,28.876,28.876,0,0,1-13.978,13.978,38.136,38.136,0,0,1-13.978,2.467c-7.4,0-9.867.822-29.6.822s-22.2,0-29.6-.822a38.136,38.136,0,0,1-13.978-2.467,28.876,28.876,0,0,1-13.978-13.978A38.136,38.136,0,0,1,13.978,103.6c0-7.4-.822-9.867-.822-29.6s0-22.2.822-29.6a38.136,38.136,0,0,1,2.467-13.978A29.531,29.531,0,0,1,22.2,22.2a13.9,13.9,0,0,1,8.222-5.756A38.136,38.136,0,0,1,44.4,13.978c7.4-.822,9.867-.822,29.6-.822M74,0C54.267,0,50.978,0,43.578.822A50.761,50.761,0,0,0,25.489,4.111a32.188,32.188,0,0,0-13.156,8.222A32.188,32.188,0,0,0,4.111,25.489C1.644,30.422.822,35.356.822,43.578,0,50.978,0,54.267,0,74s0,23.022.822,30.422a50.761,50.761,0,0,0,3.289,18.089,32.188,32.188,0,0,0,8.222,13.156,32.188,32.188,0,0,0,13.156,8.222,50.76,50.76,0,0,0,18.089,3.289C50.978,148,54.267,148,74,148s23.022,0,30.422-.822a50.761,50.761,0,0,0,18.089-3.289,34.5,34.5,0,0,0,21.378-21.378,50.76,50.76,0,0,0,3.289-18.089c0-8.222.822-10.689.822-30.422s0-23.022-.822-30.422a50.761,50.761,0,0,0-3.289-18.089,32.188,32.188,0,0,0-8.222-13.156,32.188,32.188,0,0,0-13.156-8.222A50.761,50.761,0,0,0,104.422.822C97.022,0,93.733,0,74,0m0,36.178C52.622,36.178,36.178,52.622,36.178,74A37.822,37.822,0,1,0,74,36.178m0,62.489A24.226,24.226,0,0,1,49.333,74,24.226,24.226,0,0,1,74,49.333,24.226,24.226,0,0,1,98.667,74,24.226,24.226,0,0,1,74,98.667m39.467-73.178a9.044,9.044,0,1,0,9.044,9.044,9.125,9.125,0,0,0-9.044-9.044" fill="#3a8091" fill-rule="evenodd"/>
</svg>
