<svg id="Twitter" xmlns="http://www.w3.org/2000/svg" width="184.932" height="150" viewBox="0 0 184.932 150">
  <path id="Path_2" data-name="Path 2" d="M96.562,152c69.863,0,107.877-57.534,107.877-107.877V38.986c7.192-5.137,13.356-12.329,18.493-19.521a85.288,85.288,0,0,1-21.575,6.164A39.972,39.972,0,0,0,217.795,5.082a94.236,94.236,0,0,1-23.63,9.247A36.692,36.692,0,0,0,166.425,2c-20.548,0-38.014,17.466-38.014,38.014,0,3.082,0,6.164,1.027,8.219C97.589,46.178,69.849,31.795,51.356,8.164a39.346,39.346,0,0,0-5.137,19.521c0,13.356,7.192,24.658,16.438,31.849A34.635,34.635,0,0,1,45.192,54.4h0A37.548,37.548,0,0,0,76.014,91.384c-3.082,1.027-6.164,1.027-10.274,1.027-2.055,0-5.137,0-7.192-1.027,5.137,15.411,18.493,25.685,35.959,26.712a77.571,77.571,0,0,1-47.26,16.438A28.444,28.444,0,0,1,38,133.507C54.438,145.836,74.986,152,96.562,152" transform="translate(-38 -2)" fill="#3a8091" fill-rule="evenodd"/>
</svg>
